<svg xmlns="http://www.w3.org/2000/svg" viewBox="0 0 120 120" xml:space="preserve"><path fill="#00A1F1" d="M83.014 28.274h-46.9a1.954 1.954 0 0 0-1.954 1.954v58.625c0 1.079.875 1.954 1.954 1.954h46.9a1.953 1.953 0 0 0 1.953-1.954V30.228a1.953 1.953 0 0 0-1.953-1.954zm-43.007 5.864H79.09v44.945H40.007V34.138zm30.576 51.54h-3.554a.733.733 0 1 1 0-1.465h3.554a.733.733 0 0 1 0 1.465zm8.522 0H75.55a.733.733 0 0 1 0-1.465h3.555a.732.732 0 0 1 0 1.465z"/><path fill="#F65314" d="m73.228 49.769-4.87-2.931-4.901 2.931V34.137h9.771z"/><g fill="#7CBB00"><path d="M45.152 72.244c0 .404.328.732.733.732h9.771a.733.733 0 0 0 .733-.732v-6.169l-11.236 5.036v1.133zM55.655 58.994h-9.771a.733.733 0 0 0-.733.732v5.751l11.236-5.036v-.715a.73.73 0 0 0-.732-.732zM45.152 70.041l11.237-5.036v-2.958l-11.237 5.037z"/></g><g fill="#1A171B"><path d="M52.097 84.212h-3.554a.733.733 0 1 0 0 1.465h3.554a.733.733 0 1 0 0-1.465zM43.576 84.212h-3.555a.733.733 0 0 0 0 1.465h3.555a.733.733 0 0 0 0-1.465zM45.885 41.71h8.424a.732.732 0 0 0 0-1.465h-8.424a.733.733 0 0 0 0 1.465zM45.885 47.96h13.299a.732.732 0 0 0 0-1.465H45.885a.733.733 0 0 0 0 1.465zM45.885 54.21h7.807a.733.733 0 0 0 0-1.465h-7.807a.733.733 0 0 0 0 1.465zM56.867 53.476c0 .405.328.733.732.733h15.643a.733.733 0 1 0 0-1.465H57.599a.732.732 0 0 0-.732.732zM60.542 60.46h4.87a.733.733 0 1 0 0-1.465h-4.87a.733.733 0 0 0 0 1.465zM73.242 58.994h-3.921a.732.732 0 0 0 0 1.465h3.921a.733.733 0 1 0 0-1.465zM73.242 65.261h-5.874a.733.733 0 0 0 0 1.465h5.874a.733.733 0 1 0 0-1.465zM60.542 66.726h2.917a.733.733 0 1 0 0-1.465h-2.917a.733.733 0 0 0 0 1.465zM68.357 71.511h-7.815a.733.733 0 0 0 0 1.465h7.815a.732.732 0 0 0 0-1.465z"/><path d="M83.014 27.541h-46.9a2.69 2.69 0 0 0-2.687 2.688v58.625a2.69 2.69 0 0 0 2.687 2.687h46.9a2.691 2.691 0 0 0 2.688-2.687V30.228a2.692 2.692 0 0 0-2.688-2.687zm1.22 61.312c0 .673-.547 1.221-1.221 1.221h-46.9a1.222 1.222 0 0 1-1.221-1.221V30.228c0-.674.547-1.222 1.221-1.222h46.9c.674 0 1.221.548 1.221 1.222v58.625z"/><path d="M79.09 33.405H40.007a.733.733 0 0 0-.733.732v44.945c0 .405.329.733.733.733H79.09a.733.733 0 0 0 .732-.733V34.138a.733.733 0 0 0-.732-.733zm-.733 44.945H40.74V34.87h37.617v43.48zM28.297 47.481a.733.733 0 0 0-.733.733v19.953a.733.733 0 0 0 1.465 0V48.215a.733.733 0 0 0-.732-.734zM28.297 72.321a.733.733 0 0 0-.733.732v3.794a.733.733 0 0 0 1.465 0v-3.794a.732.732 0 0 0-.732-.732zM90.83 43.458a.733.733 0 0 0-.732.733v19.953a.733.733 0 0 0 1.465 0V44.191a.733.733 0 0 0-.733-.733zM90.83 34.778a.732.732 0 0 0-.732.732v3.794a.732.732 0 0 0 1.465 0V35.51a.733.733 0 0 0-.733-.732z"/></g></svg>
